<svg t="1625629138386" class="icon" viewBox="0 0 1024 1024" version="1.1" xmlns="http://www.w3.org/2000/svg" p-id="2380" width="128" height="128"><path d="M912 910.8v-401c0-6.6 5.4-12 12-12h12c6.6 0 12 5.4 12 12v401c0 6.6-5.4 12-12 12h-12c-6.6 0.1-12-5.3-12-12zM930.9 323.5L853.1 242 654.8 449.3c-4.3 4.6-10.4 7.2-16.7 7.2-6.3 0-12.4-2.6-16.7-7.2L390.7 208.1 109.8 501.7c-4.3 4.6-10.4 7.2-16.7 7.2-6.3 0-12.4-2.6-16.7-7.2-9.2-9.8-9.2-25.1 0-35l297.6-311c4.3-4.6 10.4-7.2 16.7-7.2 6.3 0 12.4 2.6 16.7 7.2l230.7 241.2 181.5-189.8-77.9-81.4c-0.3-13.4 10.3-24.4 23.6-24.7h165.5c13.4 0.3 23.9 11.4 23.6 24.7v173c0.4 13.4-10.1 24.5-23.5 24.8zM119.7 922h-12c-6.6 0-12-5.4-12-12V681.9c0-6.6 5.4-12 12-12h12c6.6 0 12 5.4 12 12V910c0 6.6-5.4 12-12 12zM390.2 923h-12c-6.6 0-12-5.4-12-12V556.8c0-6.6 5.4-12 12-12h12c6.6 0 12 5.4 12 12V911c0 6.6-5.4 12-12 12zM665.6 921.4h-12c-6.6 0-12-5.4-12-12V645.3c0-6.6 5.4-12 12-12h12c6.6 0 12 5.4 12 12v264.1c0 6.6-5.4 12-12 12z" p-id="2381"></path></svg>
