<svg viewBox="0 0 1024 1024" version="1.1" xmlns="http://www.w3.org/2000/svg"  width="128" height="128"><path d="M905.301333 511.146667s-12.437333-34.154667-73.344 0a401.216 401.216 0 0 1-67.797333 33.450666 111.808 111.808 0 0 1-62.848 8.832s-74.922667-19.456-67.2-146.218666l11.797333-174.933334s9.898667-103.488-32.874666-110.677333c0 0-36.053333-14.826667-48.277334 122.816l-11.925333 114.325333s-5.525333 83.264-35.306667 81.173334c0 0-21.162667 2.218667-35.093333-79.488 0 0-26.666667-255.722667-82.304-254.634667-55.658667 1.088-8.192 202.432-8.192 202.432s25.706667 141.013333 10.090667 149.248c0 0-14.805333 14.378667-35.349334-11.925333a1038.570667 1038.570667 0 0 1-63.488-112.597334s-43.413333-95.018667-80.533333-96.128c0 0-42.666667 1.856-20.416 66.432a1595.690667 1595.690667 0 0 0 63.722667 148.864s34.410667 68.629333 13.994666 67.754667c0 0-17.92 8.128-64.298666-45.568 0 0-50.304-62.869333-79.210667-54.485333 0 0-23.765333 1.706667-17.365333 37.610666a99.626667 99.626667 0 0 0 18.56 41.045334 818.837333 818.837333 0 0 0 51.648 63.232 245.696 245.696 0 0 1 50.816 83.029333l0.298666 0.874667a1298.432 1298.432 0 0 0 85.952 203.541333 167.018667 167.018667 0 0 0 75.093334 64.384c21.696 8.469333 31.466667-1.536 35.669333-9.856 10.069333-27.562667 14.378667-70.677333-5.546667-136.533333a163.861333 163.861333 0 0 0-44.032-88.64s-11.349333-12.586667-2.88-19.733334c8.448-7.146667 42.24 24.042667 42.24 24.042667s10.944 8.426667 17.557334 5.632c10.24-4.330667 3.2-36.992 3.2-36.992s-11.008-50.602667-0.618667-53.696c17.365333-5.205333 29.653333 61.717333 29.653333 61.717333s3.648 11.946667 9.984 11.648 10.176-5.909333 14.506667-23.957333 14.570667-53.632 14.570667-53.632 4.949333-15.253333 14.549333-14.08c12.437333 1.536 6.357333 30.293333 6.357333 30.293333l-7.466666 48.064s-2.410667 22.186667 3.370666 23.829334 12.842667-7.722667 19.584-20.544 23.488-41.6 34.432-37.674667 3.2 25.344-10.602666 61.461333-21.589333 55.232-11.818667 57.216a103.509333 103.509333 0 0 0 35.733333-8.64s15.829333-5.653333 18.389334 4.394667c2.538667 9.92-6.890667 17.216-17.322667 24.917333a157.802667 157.802667 0 0 0-73.877333 88.042667 97.706667 97.706667 0 0 0-1.429334 48.448 23.552 23.552 0 0 0 27.029334 18.624 233.344 233.344 0 0 0 122.88-64.853333l0.042666-0.128c25.728-23.978667 53.504-63.274667 79.808-142.250667a100.565333 100.565333 0 0 1 32.128-55.722667l84.693334-73.834666s46.869333-42.538667 33.066666-69.973334z"></path></svg>
