<svg t="1614244730446" class="icon" viewBox="0 0 1025 1024" version="1.1" xmlns="http://www.w3.org/2000/svg" p-id="4626" width="128" height="128"><path d="M600.832 540.97l-98.496-253.183-107.52 202.304-59.968-61.696-101.568 63.232 28.672 16.512 65.024-40.512 78.528 80.832 90.88-171.008 100.48 258.624 85.696-180.48 34.944 74.304 38.272-6.4-72.96-155.328-81.984 172.8z m0 0M951.68 739.179c-17.408-25.92-39.168-45.312-65.408-58.048 6.976 11.392 10.496 23.744 10.496 36.992 0 20.288-7.488 37.632-22.528 52.032-15.04 14.4-33.152 21.632-54.272 21.632-21.184 0-39.296-7.232-54.272-21.632-15.04-14.4-22.528-31.744-22.528-52.032 0-13.248 3.456-25.6 10.496-36.992-26.24 12.864-48 32.128-65.408 58.048 15.232 22.464 34.304 40.384 57.216 53.696 22.912 13.312 47.808 19.968 74.56 19.968 26.816 0 51.648-6.656 74.56-19.968 22.784-13.312 41.856-31.232 57.088-53.696z m-123.584-63.232c0-2.176-0.832-4.032-2.432-5.632-1.6-1.536-3.52-2.304-5.824-2.304-14.336 0-26.624 4.928-36.864 14.72-10.24 9.792-15.36 21.568-15.36 35.264 0 2.176 0.832 4.032 2.432 5.632 1.6 1.536 3.52 2.304 5.824 2.304s4.288-0.768 5.824-2.304c1.6-1.536 2.432-3.392 2.432-5.632 0-9.472 3.456-17.536 10.496-24.128 6.976-6.72 15.36-10.048 25.216-10.048 2.24 0 4.224-0.768 5.824-2.304 1.6-1.472 2.432-3.328 2.432-5.568z m145.536 63.232c0 3.776-1.152 7.488-3.392 11.328-16.064 25.216-37.568 45.44-64.576 60.672-27.072 15.232-55.616 22.784-85.696 22.784s-58.624-7.616-85.76-22.848c-27.072-15.232-48.64-35.392-64.576-60.544-2.304-3.84-3.392-7.616-3.392-11.328 0-3.776 1.152-7.488 3.392-11.328 16.064-25.088 37.568-45.312 64.576-60.544 27.072-15.232 55.616-22.848 85.76-22.848 30.08 0 58.624 7.616 85.696 22.848 27.072 15.232 48.64 35.392 64.576 60.544 2.304 3.712 3.392 7.552 3.392 11.264z m0 0M992.448 735.659c2.304 29.824-38.784 65.216-62.016 80.448h47.424c40.704 0 46.528-14.784 46.528-34.432v-45.952s-13.952-0.064-31.936-0.064z m0 0" p-id="4627"></path><path d="M153.984 710.57V227.5h699.968v395.52c21.12 4.48 39.68 12.8 46.592 16.704V212.65c0-19.648-14.592-35.52-32.704-35.52H139.968c-18.112 0-32.704 15.872-32.704 35.52v524.608H0v43.392c0 19.648 14.656 35.52 32.704 35.52H703.36m-264.64-55.04v-23.04h133.952v23.04H438.72z m264.704 55.04c-31.872-23.68-87.488-70.464-45.568-104.896-20.416-0.128-503.872-0.64-503.872-0.64" p-id="4628"></path></svg>
