<svg t="1610600287763" class="icon" viewBox="0 0 1024 1024" version="1.1" xmlns="http://www.w3.org/2000/svg" p-id="2708" width="200" height="200"><path d="M539.949 263.572l130.492-124.104a65.888 65.888 0 0 1 21.807-13.787 66.988 66.988 0 0 1 25.564-4.406 66.784 66.784 0 0 1 25.313 5.669 65.803 65.803 0 0 1 21.1 14.869L888.33 272.294a65.702 65.702 0 0 1 13.73 21.76c3.123 8.142 4.579 16.827 4.393 25.476l0.008 0.048-0.008 0.163a67.19 67.19 0 0 1-5.67 25.308 65.58 65.58 0 0 1-14.804 21.032L755.488 490.179a65.833 65.833 0 0 1-21.814 13.799 66.865 66.865 0 0 1-25.565 4.4 66.706 66.706 0 0 1-25.296-5.669 65.772 65.772 0 0 1-21.107-14.875l-124.09-130.475a65.766 65.766 0 0 1-13.763-21.776c-3.131-8.172-4.587-16.875-4.376-25.524v-0.201a66.96 66.96 0 0 1 5.661-25.239 65.58 65.58 0 0 1 14.811-21.047zM185.834 141.028h206.862c19.371 0 36.979 7.912 49.72 20.652 12.74 12.742 20.652 30.341 20.652 49.714v206.86c0 19.373-7.912 36.973-20.652 49.714-12.742 12.742-30.349 20.652-49.72 20.652H185.834c-19.371 0-36.972-7.91-49.712-20.652-12.742-12.742-20.654-30.341-20.654-49.714v-206.86c0-19.367 7.912-36.972 20.654-49.714 12.74-12.74 30.342-20.652 49.712-20.652z m206.862 49.561H185.834c-5.706 0-10.903 2.345-14.682 6.123-3.778 3.778-6.123 8.982-6.123 14.682v206.86c0 5.706 2.345 10.906 6.123 14.682 3.778 3.778 8.976 6.123 14.682 6.123h206.862c5.706 0 10.91-2.345 14.688-6.123 3.776-3.776 6.123-8.976 6.123-14.682v-206.86c0-5.706-2.347-10.903-6.123-14.682-3.778-3.778-8.982-6.123-14.688-6.123zM185.834 557.32h206.862c19.371 0 36.979 7.91 49.72 20.651 12.74 12.742 20.652 30.344 20.652 49.714v206.86c0 19.375-7.912 36.98-20.652 49.723-12.742 12.741-30.349 20.651-49.72 20.651H185.834c-19.371 0-36.972-7.91-49.712-20.651-12.742-12.742-20.654-30.348-20.654-49.723v-206.86c0-19.366 7.912-36.972 20.654-49.714 12.74-12.741 30.342-20.651 49.712-20.651z m206.862 49.564H185.834c-5.706 0-10.903 2.343-14.682 6.12-3.778 3.778-6.123 8.984-6.123 14.682v206.86c0 5.706 2.345 10.911 6.123 14.689 3.778 3.778 8.976 6.121 14.682 6.121h206.862c5.706 0 10.91-2.343 14.688-6.121 3.776-3.778 6.123-8.983 6.123-14.689v-206.86c0-5.705-2.347-10.903-6.123-14.682-3.778-3.777-8.982-6.12-14.688-6.12z m216.839-49.564h206.859c19.367 0 36.977 7.91 49.714 20.651 12.746 12.742 20.652 30.348 20.652 49.714v206.86c0 19.375-7.906 36.98-20.652 49.723-12.737 12.741-30.339 20.651-49.714 20.651H609.535c-19.367 0-36.969-7.91-49.715-20.651-12.737-12.742-20.651-30.348-20.651-49.723v-206.86c0-19.366 7.914-36.972 20.651-49.714 12.746-12.741 30.348-20.651 49.715-20.651z m206.86 49.564h-206.86c-5.702 0-10.899 2.343-14.682 6.12-3.774 3.778-6.117 8.984-6.117 14.682v206.86c0 5.706 2.343 10.911 6.117 14.689 3.782 3.778 8.979 6.121 14.682 6.121h206.859c5.71 0 10.907-2.343 14.682-6.121 3.782-3.778 6.125-8.983 6.125-14.689v-206.86c0-5.697-2.343-10.903-6.125-14.682-3.774-3.777-8.979-6.12-14.681-6.12zM707.198 178.096L576.706 302.2a13.387 13.387 0 0 0-2.936 4.159 13.48 13.48 0 0 0-1.131 4.958v0.022a12.879 12.879 0 0 0 0.87 4.97 13.237 13.237 0 0 0 2.717 4.315l0.008-0.006L700.35 451.08a12.867 12.867 0 0 0 4.132 2.908 13.108 13.108 0 0 0 4.953 1.106c1.7 0.035 3.449-0.254 5.075-0.87a12.83 12.83 0 0 0 4.271-2.672L849.232 327.46c1.285-1.228 2.285-2.647 2.952-4.152v-0.012a12.803 12.803 0 0 0 1.122-4.811h-0.016v-0.146l0.016-0.071a12.712 12.712 0 0 0-0.878-4.927v-0.01c-0.594-1.537-1.521-3-2.741-4.287L725.589 178.567a13 13 0 0 0-4.124-2.89 13.091 13.091 0 0 0-4.962-1.112c-1.7-0.034-3.44 0.254-5.067 0.871a12.593 12.593 0 0 0-4.229 2.647l-0.009 0.013z"  p-id="2709"></path></svg>
