<svg  viewBox="0 0 1024 1024" version="1.1" xmlns="http://www.w3.org/2000/svg" width="128" height="128"><path d="M918.528 863.744l-16.896-202.24v-132.608c0-10.752-5.12-20.992-13.312-28.16l-71.168-57.856c3.584-3.072 6.144-5.632 8.704-8.192 22.016-18.432 40.448-53.248 20.992-91.648-12.8-24.576-36.864-38.912-66.048-38.912-10.24 0-18.432 1.536-23.04 2.56 6.656-18.944 9.728-38.4 9.728-58.368 1.024-47.616-17.408-92.672-50.688-126.976-32.768-33.28-76.288-51.712-122.368-51.712-69.12 0-132.608 42.496-159.744 105.472-32.768-43.52-84.48-69.632-138.752-69.632-96.256 0-174.592 79.36-174.592 176.64 0 78.848 52.736 148.48 126.464 169.984-0.512 2.56-1.024 5.632-1.024 8.192v155.136l14.848 119.296-104.448 105.984c-13.824 14.336-13.824 36.864 0.512 50.688 5.632 5.12 12.288 8.704 19.968 9.728l116.736 16.896h1.024c1.024 0 2.048 0.512 3.584 0.512 11.776 0 22.528-5.632 28.672-14.336l84.48-114.176 51.2 17.408v75.776c0 10.24 4.608 20.48 12.8 27.648l0.512 0.512c6.656 5.12 14.336 7.68 22.528 7.68 2.048 0 4.608 0 7.68-1.024l82.944-16.896c8.704-1.536 15.872-6.656 20.992-12.8l3.584 18.944c3.584 16.896 17.92 28.672 35.328 28.672h83.456c10.24 0 20.48-4.608 26.624-12.288 5.12-6.656 8.192-14.336 8.704-22.016 2.56 3.584 5.632 7.168 9.728 10.24 6.656 4.608 13.824 6.656 20.992 6.656 2.048 0 4.608 0 7.68-1.024l82.944-16.896c17.92-2.048 30.208-18.432 28.672-36.864zM395.264 736.256l-101.376 136.192-90.624-13.312 105.984-107.52-17.408-139.264V468.48l141.824-47.616 167.936 16.896 168.96-85.504c2.048-0.512 6.656-1.536 12.288-1.536 11.776 0 20.48 4.608 24.576 13.312 10.752 20.992-10.24 35.84-12.288 37.376l-3.072 2.048-0.512 2.56c-10.24 11.264-89.088 48.64-161.28 78.848L491.008 537.6l-18.432 129.536 68.608 69.12 30.208 122.368-60.928 12.288v-96.256l-115.2-38.4z m199.168-356.864C522.24 379.392 465.92 321.024 465.92 246.784c0-72.192 57.856-130.56 128.512-130.56 72.192 0 128.512 58.368 128.512 132.608 0 72.192-57.856 130.56-128.512 130.56zM475.648 378.88l-31.744-3.072c4.096-6.656 7.68-13.312 10.752-20.48 6.656 8.704 13.824 16.384 20.992 23.552z m245.76 182.272l-175.104 58.88c-0.512 0-3.072 0.512-5.632 0.512-8.704 0-15.36-4.096-20.48-12.8-10.752-18.432-2.048-32.256 1.536-36.864l260.096-98.304 75.264 60.928v130.56l16.384 194.56-63.488 12.8-17.408-172.544-87.04 43.52 16.384 147.968h-63.488l-30.72-157.184 93.696-172.032zM783.36 460.8z m-488.448-47.616c-71.168 0-128.512-58.368-128.512-130.56s57.856-130.56 128.512-130.56 128.512 58.368 128.512 130.56-57.344 130.56-128.512 130.56z m240.128 253.952c9.728 1.024 19.968-0.512 25.6-3.072l63.488-21.504-38.912 71.68c-1.024 1.536-1.536 3.072-2.56 5.12-1.536-4.608-4.608-9.216-8.192-12.8l-39.424-39.424z" ></path></svg>
