<svg viewBox="0 0 1024 1024" version="1.1" xmlns="http://www.w3.org/2000/svg"  width="128" height="128"><path d="M844.288 787.165867l0.017067-355.089067c0-193.058133-149.674667-350.225067-333.533867-350.225067S177.322667 239.035733 177.322667 432.0768v355.089067s171.7248 42.939733 330.1888 42.939733c160.989867 0 336.776533-42.939733 336.776533-42.939733z m-491.2128-115.643734c-16.503467-17.339733-16.503467-45.448533 0-62.788266l99.1232-104.106667-99.1232-104.106667c-16.503467-17.339733-16.503467-45.448533 0-62.788266a40.874667 40.874667 0 0 1 59.8016 0l99.140267 104.106666 99.140266-104.106666a40.874667 40.874667 0 0 1 59.8016 0c16.503467 17.339733 16.503467 45.448533 0 62.788266l-99.140266 104.106667 99.140266 104.106667c16.503467 17.339733 16.503467 45.448533 0 62.788266a40.874667 40.874667 0 0 1-59.8016 0l-99.157333-104.106666-99.140267 104.106666a40.8576 40.8576 0 0 1-59.784533 0z m544.443733 186.4704c-369.595733 71.406933-402.807467 71.406933-772.983466 2.065067-20.411733 0-44.288 25.070933-44.288 46.506667s16.5376 38.8096 36.949333 38.8096h789.623467c20.411733 0 36.949333-17.373867 36.949333-38.8096s-26.180267-52.445867-46.250667-48.571734z" ></path></svg>
