<svg  viewBox="0 0 1024 1024" version="1.1" xmlns="http://www.w3.org/2000/svg"  width="128" height="128"><path d="M560 512.2c-1.5 80.7 296.9 108.2 297 280h0.9V902c0 14.9-12.1 27-27 27h-757c-14.9 0-27-12.1-27-27V792.2h0.9c0.7-185.2 295.6-202.4 297-280 0.4-4 0.5-46.5-14-69.8-15.4-24.7-67.6-102.7-67.6-175.7 0-112 77.3-202.8 189.3-202.8s189.3 90.8 189.3 202.8c0 73-59.8 154.7-67.6 175.7-8.6 22.8-13.8 64.4-14.2 69.8z" ></path><path d="M974.1 704.2c-0.1-139.1-241.7-161.4-240.5-226.7 0.3-4.4 4.5-38 11.4-56.5 6.3-17 54.7-83.2 54.7-142.3 0-89.8-61.4-162.7-150.6-164.1 30.5 43.6 47 97.3 47 154.3 0 31.4-7.8 65.2-23.8 103.3-12.3 29.3-26.9 54.8-37.5 73.5-3.7 6.6-8.4 14.7-9.7 17.6-4 11.2-7.9 33.2-9.7 46.4 3 2.8 8.8 7.3 19.7 13.8 15.6 9.3 35.9 19.2 57.4 29.7 44.8 21.9 95.6 46.7 137.3 81.5 25 20.8 43.7 42.7 57.3 66.8 14.3 25.4 22.4 52.8 24.1 81.6 0.8 3.7 1.3 7.5 1.3 11.5V815h40.6c12.1 0 21.9-9.8 21.9-21.9v-88.9h-0.9z"></path></svg>
