<svg t="1741076912040" class="icon" viewBox="0 0 1024 1024" version="1.1" xmlns="http://www.w3.org/2000/svg" p-id="8198" width="128" height="128"><path d="M602.352941 220.862745c20.078431 0 33.464052 13.385621 40.156863 33.464052 0 20.078431-13.385621 33.464052-33.464052 33.464053H194.091503c-20.078431 0-33.464052-20.078431-33.464052-40.156863 0-13.385621 13.385621-26.771242 26.771242-33.464052l414.954248 6.69281zM401.568627 408.261438c20.078431 0 33.464052 13.385621 40.156863 33.464052 0 20.078431-13.385621 33.464052-33.464052 33.464052H194.091503c-20.078431 0-33.464052-13.385621-33.464052-40.156862 0-20.078431 13.385621-33.464052 33.464052-40.156863l207.477124 13.385621z m374.797386 140.54902c-53.542484 0-100.392157 40.156863-100.392157 93.699346s40.156863 100.392157 100.392157 100.392157 93.699346-46.849673 93.699346-100.392157-40.156863-93.699346-93.699346-93.699346z m0-73.620916c93.699346 0 174.013072 80.313725 167.320262 174.013072 0 46.849673-20.078431 93.699346-53.542484 127.163399 73.620915 40.156863 120.470588 120.470588 120.470588 207.477124 0 20.078431-13.385621 40.156863-40.156863 40.156863-20.078431 0-40.156863-13.385621-40.156862-40.156863 0-93.699346-73.620915-160.627451-167.320262-160.627451S602.352941 896.836601 602.352941 983.843137c0 20.078431-13.385621 40.156863-40.156863 40.156863-20.078431 0-40.156863-13.385621-40.156862-40.156863 0-87.006536 46.849673-167.320261 120.470588-207.477124-66.928105-60.235294-73.620915-174.013072-13.385621-240.941176 53.542484-40.156863 100.392157-60.235294 147.24183-60.235295z m60.235294-468.496732c53.542484 0 100.392157 33.464052 107.084968 87.006536v354.718955c0 20.078431-20.078431 33.464052-40.156863 33.464052S870.065359 468.496732 870.065359 455.111111V107.084967c0-13.385621-13.385621-20.078431-26.771241-26.771242H113.777778c-13.385621 0-26.771242 6.69281-33.464053 20.078432v816.522876c0 13.385621 13.385621 20.078431 26.771242 26.771242h321.254902c20.078431 0 33.464052 20.078431 33.464053 40.156862s-13.385621 33.464052-26.771242 33.464053H113.777778c-53.542484 0-100.392157-33.464052-107.084968-87.006536V107.084967C6.69281 53.542484 53.542484 13.385621 107.084967 6.69281h729.51634z" p-id="8199"></path></svg>
