<?xml version="1.0" standalone="no"?><!DOCTYPE svg PUBLIC "-//W3C//DTD SVG 1.1//EN" "http://www.w3.org/Graphics/SVG/1.1/DTD/svg11.dtd"><svg t="1743069062962" class="icon" viewBox="0 0 1024 1024" version="1.1" xmlns="http://www.w3.org/2000/svg" p-id="8909" xmlns:xlink="http://www.w3.org/1999/xlink" width="48" height="48"><path d="M426.666667 117.333333a181.333333 181.333333 0 1 1 0 362.666667 181.333333 181.333333 0 0 1 0-362.666667z m0 64a117.333333 117.333333 0 1 0 0 234.666667 117.333333 117.333333 0 0 0 0-234.666667z m284.373333-17.92a32 32 0 0 1 42.922667 14.293334c3.498667 6.997333 8.234667 18.773333 12.8 34.688 17.834667 62.122667 17.834667 132.565333-11.818667 205.056a32 32 0 1 1-59.221333-24.234667 245.333333 245.333333 0 0 0 9.514666-163.157333 154.581333 154.581333 0 0 0-8.533333-23.765334 32 32 0 0 1 14.336-42.922666z m148.053333-84.736a32 32 0 0 1 43.52 12.458667c6.357333 11.349333 15.189333 31.232 23.893334 58.453333 34.218667 107.264 34.218667 229.077333-22.698667 354.304a32 32 0 0 1-58.282667-26.453333c49.749333-109.44 49.749333-215.210667 20.010667-308.437333-7.338667-22.912-14.506667-38.954667-18.858667-46.805334a32 32 0 0 1 12.458667-43.52zM473.6 586.666667c125.909333 0 155.861333 2.432 194.389333 22.101333a202.666667 202.666667 0 0 1 88.576 88.576c19.626667 38.528 22.101333 68.48 22.101334 194.389333v25.6a32 32 0 0 1-32 32h-640a32 32 0 0 1-32-32v-25.6c0-125.909333 2.432-155.861333 22.101333-194.389333a202.666667 202.666667 0 0 1 88.576-88.576c38.528-19.626667 68.48-22.101333 194.389333-22.101333h93.866667z m22.954667 64H356.778667c-93.952 0.384-118.869333 3.114667-142.378667 15.104a138.666667 138.666667 0 0 0-60.586667 60.586666c-12.032 23.552-14.762667 48.469333-15.104 142.421334l-0.042666 16.554666h575.957333v-5.376c-0.128-99.370667-2.432-127.146667-13.738667-150.869333l-1.322666-2.688a138.666667 138.666667 0 0 0-60.586667-60.586667c-23.552-12.032-48.469333-14.762667-142.421333-15.104z" p-id="8910"></path></svg>