<svg viewBox="0 0 1485 1024" version="1.1" xmlns="http://www.w3.org/2000/svg" width="128" height="128" data-spm-anchor-id="a313x.7781069.0.i29"><path d="M1120.304553 1017.706583l-43.442906 6.110114H322.751462A329.946119 329.946119 0 0 1 0.015277 690.876622a336.056232 336.056232 0 0 1 294.812967-336.056232A422.575437 422.575437 0 0 1 1086.087918 226.202505a200.59502 200.59502 0 0 1 43.442906 0 389.33642 389.33642 0 0 1 344.427087 292.063416 411.638334 411.638334 0 0 1 3.116158 182.142478 447.01589 447.01589 0 0 1-344.54929 311.004768l-12.220226 6.110113z m-341.249829-320.597645a107.904601 107.904601 0 0 1 9.409575-49.61412 59.451403 59.451403 0 0 1 28.167622-27.923218 183.303399 183.303399 0 0 0 56.274144-49.61412 97.761813 97.761813 0 0 0 18.758048-62.01765 115.481142 115.481142 0 0 0-40.632254-96.112083 175.78796 175.78796 0 0 0-118.841704-37.21059 154.097058 154.097058 0 0 0-100.083656 30.978275 127.518065 127.518065 0 0 0-50.041828 111.63177h87.557924a64.339493 64.339493 0 0 1 68.799876-71.305022 58.046076 58.046076 0 0 1 40.632253 12.220226 65.194909 65.194909 0 0 1 18.758048 49.61412 75.337697 75.337697 0 0 1-37.516095 62.01765 146.031708 146.031708 0 0 0-53.157986 55.785335 206.277425 206.277425 0 0 0-9.348474 71.305022h81.264507z m6.110114 40.265647h-90.55188v86.82471h90.674082v-86.82471z"  class="selected"></path></svg>
