<svg t="1741075218744" class="icon" viewBox="0 0 1024 1024" version="1.1" xmlns="http://www.w3.org/2000/svg" p-id="2668" width="128" height="128"><path d="M132.623 37.677c-17.626 0-31.909 14.264-31.909 31.909v190.693a159.245 159.245 0 0 1 31.909-3.229c10.94 0 21.614 1.121 31.928 3.229V69.585c0-17.645-14.264-31.908-31.928-31.908z m-31.909 609.62V963.11c0 17.645 14.283 31.908 31.909 31.908 17.664 0 31.928-14.264 31.928-31.908V647.297a159.286 159.286 0 0 1-31.928 3.248c-10.94 0-21.577-1.14-31.909-3.248z m287.199-609.62c-17.645 0-31.909 14.264-31.909 31.909v314.682a158.012 158.012 0 0 1 31.909-3.248c10.94 0 21.596 1.121 31.928 3.248V69.585c-0.001-17.645-14.283-31.908-31.928-31.908z m-31.909 732.336V963.11c0 17.645 14.264 31.908 31.909 31.908s31.928-14.264 31.928-31.908V770.013a159.42 159.42 0 0 1-63.837 0zM643.221 37.677c-17.645 0-31.928 14.264-31.928 31.909v132.498a158.065 158.065 0 0 1 31.928-3.229c10.922 0 21.596 1.102 31.91 3.229V69.585c0-17.645-14.264-31.908-31.91-31.908z m-31.928 542.08V963.11c0 17.645 14.283 31.908 31.928 31.908 17.646 0 31.91-14.264 31.91-31.908V579.757a159.25 159.25 0 0 1-31.91 3.248c-10.94 0-21.594-1.14-31.928-3.248z m287.219-542.08c-17.664 0-31.928 14.264-31.928 31.909v461.966a157.897 157.897 0 0 1 31.928-3.248c10.939 0 21.576 1.121 31.908 3.248V69.585c0-17.645-14.283-31.908-31.908-31.908z m-31.928 869.686v55.746c0 17.645 14.264 31.908 31.928 31.908 17.625 0 31.908-14.264 31.908-31.908v-55.746c-10.332 2.128-20.969 3.229-31.908 3.229-10.942 0.001-21.616-1.101-31.928-3.229z" fill="" p-id="2669"></path><path d="M132.623 292.966c-52.877 0-95.727 42.849-95.727 95.727v127.655c0 52.896 42.849 95.745 95.727 95.745 52.896 0 95.746-42.849 95.746-95.745V388.693c0-52.878-42.849-95.727-95.746-95.727z m68.718 223.382c0 24.976-9.725 72.022-68.718 72.022-50.409 0-71.073-48.832-71.073-73.827V383.261c0-24.977 23.096-66.591 71.073-66.591 51.7 0 68.718 41.614 68.718 66.591v133.087z m186.572-94.531c-52.877 0-95.727 42.849-95.727 95.727v127.654c0 52.896 42.849 95.745 95.727 95.745 52.896 0 95.746-42.849 95.746-95.745V517.544c-0.001-52.878-42.85-95.727-95.746-95.727z m68.717 223.381c0 24.977-9.725 72.022-68.718 72.022-50.408 0-71.073-48.831-71.073-73.827V512.112c0-24.977 23.096-66.591 71.073-66.591 51.7 0 68.718 41.614 68.718 66.591v133.086z m186.573-412.821c-52.879 0-95.727 42.849-95.727 95.727v127.673c0 52.877 42.848 95.727 95.727 95.727 52.896 0 95.744-42.849 95.744-95.727V328.104c0-52.877-42.847-95.727-95.744-95.727z m68.717 223.4c0 24.976-9.725 72.023-68.717 72.023-50.408 0-71.074-48.852-71.074-73.847V322.672c0-24.957 23.096-66.572 71.074-66.572 51.699 0 68.717 41.615 68.717 66.572v133.105z m186.572 104.958c-52.877 0-95.727 42.849-95.727 95.726v127.654c0 52.896 42.85 95.746 95.727 95.746 52.896 0 95.746-42.85 95.746-95.746V656.461c0-52.877-42.849-95.726-95.746-95.726z m68.719 223.38c0 24.977-9.725 72.023-68.719 72.023-50.408 0-71.072-48.832-71.072-73.827V651.029c0-24.977 23.096-66.591 71.072-66.591 51.699 0 68.719 41.614 68.719 66.591v133.086z" fill="" p-id="2670"></path></svg>
